<mxfile host="app.diagrams.net" agent="Mozilla/5.0 (Windows NT 10.0; Win64; x64) AppleWebKit/537.36 (KHTML, like Gecko) Chrome/131.0.0.0 Safari/537.36" version="25.0.3">
  <diagram name="Page-1" id="qrZf_PR8u5FZ7SCdpnUU">
    <mxGraphModel dx="1363" dy="752" grid="1" gridSize="10" guides="1" tooltips="1" connect="1" arrows="1" fold="1" page="1" pageScale="1" pageWidth="827" pageHeight="1169" math="0" shadow="0">
      <root>
        <mxCell id="0" />
        <mxCell id="1" parent="0" />
        <mxCell id="Ndrh2jchPGBzcXxv9tch-3" value="дијагноза на тумор" style="ellipse;whiteSpace=wrap;html=1;" vertex="1" parent="1">
          <mxGeometry x="39" y="120" width="130" height="80" as="geometry" />
        </mxCell>
        <mxCell id="Ndrh2jchPGBzcXxv9tch-16" value="Регистар&amp;nbsp;&lt;div&gt;администратор&lt;div&gt;&lt;br&gt;&lt;div&gt;&amp;nbsp;&lt;div&gt;&lt;br&gt;&lt;/div&gt;&lt;/div&gt;&lt;/div&gt;&lt;/div&gt;" style="shape=umlActor;verticalLabelPosition=bottom;verticalAlign=top;html=1;outlineConnect=0;" vertex="1" parent="1">
          <mxGeometry x="369" y="270" width="30" height="60" as="geometry" />
        </mxCell>
        <mxCell id="Ndrh2jchPGBzcXxv9tch-17" value="преглед на податоци за тумор" style="ellipse;whiteSpace=wrap;html=1;" vertex="1" parent="1">
          <mxGeometry x="218" y="120" width="130" height="80" as="geometry" />
        </mxCell>
        <mxCell id="Ndrh2jchPGBzcXxv9tch-18" style="edgeStyle=orthogonalEdgeStyle;rounded=0;orthogonalLoop=1;jettySize=auto;html=1;exitX=0.5;exitY=0;exitDx=0;exitDy=0;exitPerimeter=0;entryX=0.5;entryY=1;entryDx=0;entryDy=0;" edge="1" source="Ndrh2jchPGBzcXxv9tch-19" target="Ndrh2jchPGBzcXxv9tch-17" parent="1">
          <mxGeometry relative="1" as="geometry" />
        </mxCell>
        <mxCell id="Ndrh2jchPGBzcXxv9tch-19" value="Доктор&lt;div&gt;&lt;br&gt;&lt;/div&gt;" style="shape=umlActor;verticalLabelPosition=bottom;verticalAlign=top;html=1;outlineConnect=0;" vertex="1" parent="1">
          <mxGeometry x="268" y="270" width="30" height="60" as="geometry" />
        </mxCell>
        <mxCell id="Ndrh2jchPGBzcXxv9tch-20" style="edgeStyle=orthogonalEdgeStyle;rounded=0;orthogonalLoop=1;jettySize=auto;html=1;exitX=0.5;exitY=0.5;exitDx=0;exitDy=0;exitPerimeter=0;entryX=0.5;entryY=0.5;entryDx=0;entryDy=0;entryPerimeter=0;" edge="1" source="Ndrh2jchPGBzcXxv9tch-19" target="Ndrh2jchPGBzcXxv9tch-16" parent="1">
          <mxGeometry relative="1" as="geometry" />
        </mxCell>
        <mxCell id="Ndrh2jchPGBzcXxv9tch-24" value="" style="endArrow=classic;html=1;rounded=0;entryX=0.908;entryY=0.813;entryDx=0;entryDy=0;entryPerimeter=0;exitX=0.25;exitY=0.1;exitDx=0;exitDy=0;exitPerimeter=0;" edge="1" parent="1" source="Ndrh2jchPGBzcXxv9tch-16" target="Ndrh2jchPGBzcXxv9tch-17">
          <mxGeometry width="50" height="50" relative="1" as="geometry">
            <mxPoint x="339" y="260" as="sourcePoint" />
            <mxPoint x="389" y="210" as="targetPoint" />
            <Array as="points" />
          </mxGeometry>
        </mxCell>
        <mxCell id="Ndrh2jchPGBzcXxv9tch-25" value="МКБ10 шифри" style="ellipse;whiteSpace=wrap;html=1;" vertex="1" parent="1">
          <mxGeometry x="679" y="420" width="110" height="70" as="geometry" />
        </mxCell>
        <mxCell id="Ndrh2jchPGBzcXxv9tch-28" value="" style="endArrow=classic;html=1;rounded=0;entryX=1;entryY=1;entryDx=0;entryDy=0;exitX=0.25;exitY=0.1;exitDx=0;exitDy=0;exitPerimeter=0;" edge="1" parent="1" source="Ndrh2jchPGBzcXxv9tch-19" target="Ndrh2jchPGBzcXxv9tch-3">
          <mxGeometry width="50" height="50" relative="1" as="geometry">
            <mxPoint x="139" y="260" as="sourcePoint" />
            <mxPoint x="189" y="210" as="targetPoint" />
          </mxGeometry>
        </mxCell>
        <mxCell id="Ndrh2jchPGBzcXxv9tch-29" value="" style="endArrow=classic;html=1;rounded=0;exitX=0.5;exitY=0.5;exitDx=0;exitDy=0;exitPerimeter=0;entryX=0;entryY=0;entryDx=0;entryDy=0;" edge="1" parent="1" source="Ndrh2jchPGBzcXxv9tch-16" target="Ndrh2jchPGBzcXxv9tch-25">
          <mxGeometry width="50" height="50" relative="1" as="geometry">
            <mxPoint x="619" y="350" as="sourcePoint" />
            <mxPoint x="669" y="300" as="targetPoint" />
          </mxGeometry>
        </mxCell>
        <mxCell id="Ndrh2jchPGBzcXxv9tch-31" value="Болница" style="ellipse;whiteSpace=wrap;html=1;" vertex="1" parent="1">
          <mxGeometry x="339" y="490" width="110" height="70" as="geometry" />
        </mxCell>
        <mxCell id="Ndrh2jchPGBzcXxv9tch-32" value="регистриран&amp;nbsp;&lt;div&gt;пациент&lt;/div&gt;" style="ellipse;whiteSpace=wrap;html=1;" vertex="1" parent="1">
          <mxGeometry x="639" y="120" width="110" height="70" as="geometry" />
        </mxCell>
        <mxCell id="Ndrh2jchPGBzcXxv9tch-35" value="" style="endArrow=classic;html=1;rounded=0;exitX=0.736;exitY=0.086;exitDx=0;exitDy=0;exitPerimeter=0;entryX=0;entryY=1;entryDx=0;entryDy=0;" edge="1" parent="1" source="Ndrh2jchPGBzcXxv9tch-31" target="Ndrh2jchPGBzcXxv9tch-32">
          <mxGeometry width="50" height="50" relative="1" as="geometry">
            <mxPoint x="459" y="460" as="sourcePoint" />
            <mxPoint x="509" y="410" as="targetPoint" />
          </mxGeometry>
        </mxCell>
        <mxCell id="Ndrh2jchPGBzcXxv9tch-36" value="генерира&amp;nbsp;&lt;div&gt;извештаи&lt;/div&gt;" style="ellipse;whiteSpace=wrap;html=1;" vertex="1" parent="1">
          <mxGeometry x="529" y="500" width="110" height="70" as="geometry" />
        </mxCell>
        <mxCell id="Ndrh2jchPGBzcXxv9tch-38" value="" style="endArrow=classic;html=1;rounded=0;exitX=1;exitY=1;exitDx=0;exitDy=0;exitPerimeter=0;entryX=0.5;entryY=0;entryDx=0;entryDy=0;" edge="1" parent="1" source="Ndrh2jchPGBzcXxv9tch-16" target="Ndrh2jchPGBzcXxv9tch-36">
          <mxGeometry width="50" height="50" relative="1" as="geometry">
            <mxPoint x="699" y="500" as="sourcePoint" />
            <mxPoint x="749" y="450" as="targetPoint" />
          </mxGeometry>
        </mxCell>
        <mxCell id="Ndrh2jchPGBzcXxv9tch-39" value="следење на распоредот на одделението" style="ellipse;whiteSpace=wrap;html=1;" vertex="1" parent="1">
          <mxGeometry x="334" y="620" width="120" height="80" as="geometry" />
        </mxCell>
        <mxCell id="Ndrh2jchPGBzcXxv9tch-40" value="" style="endArrow=classic;html=1;rounded=0;exitX=0.5;exitY=1;exitDx=0;exitDy=0;entryX=0.5;entryY=0;entryDx=0;entryDy=0;" edge="1" parent="1" source="Ndrh2jchPGBzcXxv9tch-31">
          <mxGeometry width="50" height="50" relative="1" as="geometry">
            <mxPoint x="403" y="610" as="sourcePoint" />
            <mxPoint x="394" y="620" as="targetPoint" />
          </mxGeometry>
        </mxCell>
        <mxCell id="Ndrh2jchPGBzcXxv9tch-41" value="внесете ја дијагнозата во регистарот" style="ellipse;whiteSpace=wrap;html=1;" vertex="1" parent="1">
          <mxGeometry x="158" y="620" width="110" height="70" as="geometry" />
        </mxCell>
        <mxCell id="Ndrh2jchPGBzcXxv9tch-42" value="" style="endArrow=classic;html=1;rounded=0;exitX=0;exitY=1;exitDx=0;exitDy=0;entryX=1;entryY=0;entryDx=0;entryDy=0;" edge="1" parent="1" source="Ndrh2jchPGBzcXxv9tch-31">
          <mxGeometry width="50" height="50" relative="1" as="geometry">
            <mxPoint x="239" y="560" as="sourcePoint" />
            <mxPoint x="251.8908729652601" y="630.2512626584708" as="targetPoint" />
          </mxGeometry>
        </mxCell>
        <mxCell id="Ndrh2jchPGBzcXxv9tch-43" value="преглед на историјата на пациентот" style="ellipse;whiteSpace=wrap;html=1;" vertex="1" parent="1">
          <mxGeometry x="89" y="420" width="120" height="80" as="geometry" />
        </mxCell>
        <mxCell id="Ndrh2jchPGBzcXxv9tch-44" value="" style="endArrow=classic;html=1;rounded=0;exitX=0;exitY=1;exitDx=0;exitDy=0;exitPerimeter=0;entryX=0.775;entryY=0.088;entryDx=0;entryDy=0;entryPerimeter=0;" edge="1" parent="1" source="Ndrh2jchPGBzcXxv9tch-19" target="Ndrh2jchPGBzcXxv9tch-43">
          <mxGeometry width="50" height="50" relative="1" as="geometry">
            <mxPoint x="168" y="350" as="sourcePoint" />
            <mxPoint x="218" y="300" as="targetPoint" />
          </mxGeometry>
        </mxCell>
        <mxCell id="Ndrh2jchPGBzcXxv9tch-46" value="&lt;font style=&quot;font-size: 18px;&quot;&gt;Use Case дијаграм&lt;/font&gt;" style="text;html=1;align=center;verticalAlign=middle;whiteSpace=wrap;rounded=0;" vertex="1" parent="1">
          <mxGeometry x="300" y="30" width="200" height="30" as="geometry" />
        </mxCell>
      </root>
    </mxGraphModel>
  </diagram>
</mxfile>
